<svg xmlns="http://www.w3.org/2000/svg" xml:space="preserve" version="1.1" style="shape-rendering:geometricPrecision; text-rendering:geometricPrecision; image-rendering:optimizeQuality; fill-rule:evenodd; clip-rule:evenodd" xmlns:xlink="http://www.w3.org/1999/xlink" xmlns:xodm="http://www.corel.com/coreldraw/odm/2003" viewBox="1015.32 1260.87 539.25 535.75">
 <defs>
  <style type="text/css">
   <![CDATA[
    .fil0 {fill:#F79651}
    .fil1 {fill:#F58435}
   ]]>
  </style>
 </defs>
 <g id="Layer_x0020_1">
  <metadata id="CorelCorpID_0Corel-Layer"/>
  <path class="fil0" d="M1224.84 1526.31c-119.68,28.06 -209.49,136.02 -209.49,263.94l0 6.34 418.97 0 0 -6.34c0,-127.92 -89.81,-235.88 -209.48,-263.94z"/>
  <path class="fil1" d="M1221.97 1526.31c119.68,28.06 209.49,136.02 209.49,263.94l0 6.34 123.1 0 0 -6.34c0,-149.07 -121.96,-271.04 -271.04,-271.04 -21.15,0 -41.76,2.46 -61.55,7.1z"/>
  <path class="fil0" d="M1283.46 1491.79c63.76,0 115.46,-51.69 115.46,-115.46 0,-63.77 -51.7,-115.46 -115.46,-115.46 -63.77,0 -115.47,51.69 -115.47,115.46 0,63.77 51.7,115.46 115.47,115.46z"/>
 </g>
</svg>