<svg xmlns="http://www.w3.org/2000/svg" xml:space="preserve" version="1.1" style="shape-rendering:geometricPrecision; text-rendering:geometricPrecision; image-rendering:optimizeQuality; fill-rule:evenodd; clip-rule:evenodd" xmlns:xlink="http://www.w3.org/1999/xlink" xmlns:xodm="http://www.corel.com/coreldraw/odm/2003" viewBox="694.25 896.84 1211.71 1245.03">
 <defs>
  <style type="text/css">
   <![CDATA[
    .str0 {stroke:#F79651;stroke-width:33.33;stroke-miterlimit:2.61313}
    .str1 {stroke:#8C7373;stroke-width:33.33;stroke-miterlimit:2.61313}
    .fil3 {fill:none}
    .fil2 {fill:#F79651}
    .fil1 {fill:#968383}
    .fil0 {fill:#8C7373}
    .fil4 {fill:#F79651;fill-rule:nonzero}
   ]]>
  </style>
 </defs>
 <g id="Layer_x0020_1">
  <metadata id="CorelCorpID_0Corel-Layer"/>
  <path class="fil0" d="M1578.9 1876.36c-15.89,21.49 -25.29,48.09 -25.29,76.87 0,71.5 57.97,129.47 129.47,129.47 71.5,0 129.47,-57.97 129.47,-129.47 0,-2.51 -0.08,-5.01 -0.22,-7.48 -1.65,-29.01 -12.86,-55.47 -30.52,-76.27 -23.75,-27.97 -59.16,-45.71 -98.73,-45.71 -42.72,0 -80.6,20.68 -104.18,52.59zm104.18 22.25c30.17,0 54.62,24.46 54.62,54.62 0,30.17 -24.45,54.62 -54.62,54.62 -30.17,0 -54.62,-24.45 -54.62,-54.62 0,-30.16 24.45,-54.62 54.62,-54.62z"/>
  <path class="fil0" d="M1099.29 1876.36c-15.89,21.49 -25.29,48.09 -25.29,76.87 0,71.5 57.97,129.47 129.47,129.47 71.5,0 129.47,-57.97 129.47,-129.47 0,-2.51 -0.08,-5.01 -0.22,-7.48 -1.65,-29.01 -12.86,-55.47 -30.52,-76.27 -23.75,-27.97 -59.17,-45.71 -98.73,-45.71 -42.72,0 -80.6,20.68 -104.18,52.59zm104.18 22.25c30.17,0 54.62,24.46 54.62,54.62 0,30.17 -24.45,54.62 -54.62,54.62 -30.17,0 -54.62,-24.45 -54.62,-54.62 0,-30.16 24.45,-54.62 54.62,-54.62z"/>
  <path class="fil1" d="M1203.47 1898.61c-30.17,0 -54.62,24.46 -54.62,54.62 0,30.17 24.45,54.62 54.62,54.62 30.17,0 54.62,-24.45 54.62,-54.62 0,-30.16 -24.45,-54.62 -54.62,-54.62z"/>
  <path class="fil1" d="M1683.08 1898.61c-30.17,0 -54.62,24.46 -54.62,54.62 0,30.17 24.45,54.62 54.62,54.62 30.17,0 54.62,-24.45 54.62,-54.62 0,-30.16 -24.45,-54.62 -54.62,-54.62z"/>
  <path class="fil2" d="M881.83 1038.88l149.69 616.98c0,0 -99.96,49.75 -98.63,142.86 0,0 -9.06,122.81 141.11,154.51 0,-28.78 9.4,-55.38 25.29,-76.87 -95.82,-8.27 -85.78,-79.64 -85.78,-79.64 1.16,-53.21 53.16,-64.42 53.16,-64.42l278.39 0c26.5,-8.07 28.7,-29.15 28.18,-39.07 -0.18,-3.24 -0.64,-5.29 -0.64,-5.29 0,-26.01 -29.07,-32.13 -29.07,-32.13l-112.2 0 -118.77 0c0,0 -67.36,-279.21 -112.36,-466.24 -17.78,-73.89 -32.07,-133.38 -37.34,-155.61 -18.62,-78.47 -82.47,-75.81 -82.47,-75.81l-97.09 0c0,0 -33.26,1.33 -33.26,41.23 0,39.9 36.71,39.5 36.71,39.5l95.08 0z"/>
  <rect class="fil2" x="1323.7" y="1869.48" width="240.52" height="67.23"/>
  <path class="fil3 str0" d="M1078.44 1952.16c-150.18,-31.7 -141.11,-154.51 -141.11,-154.51 -1.33,-93.11 98.63,-142.86 98.63,-142.86l-149.7 -616.98 -95.07 0c0,0 -36.71,0.4 -36.71,-39.5 0,-39.9 33.25,-41.23 33.25,-41.23l97.1 0c0,0 63.84,-2.66 82.46,75.81 18.63,78.48 149.7,621.85 149.7,621.85l230.98 0c0,0 29.06,6.12 29.06,32.13 0,0 7.65,33.65 -27.53,44.36l-278.39 0c0,0 -52,11.21 -53.16,64.42 0,0 -10.05,71.37 85.77,79.64m104.19 22.25c30.16,0 54.61,24.46 54.61,54.62 0,30.17 -24.45,54.62 -54.61,54.62 -30.17,0 -54.62,-24.45 -54.62,-54.62 0,-30.16 24.45,-54.62 54.62,-54.62zm0 -74.84c71.5,0 129.46,57.96 129.46,129.46 0,71.5 -57.96,129.47 -129.46,129.47 -71.51,0 -129.47,-57.97 -129.47,-129.47 0,-71.5 57.96,-129.46 129.47,-129.46zm474.97 74.84c30.17,0 54.62,24.46 54.62,54.62 0,30.17 -24.45,54.62 -54.62,54.62 -30.16,0 -54.62,-24.45 -54.62,-54.62 0,-30.16 24.46,-54.62 54.62,-54.62zm0 -74.84c71.5,0 129.47,57.96 129.47,129.46 0,71.5 -57.97,129.47 -129.47,129.47 -71.5,0 -129.46,-57.97 -129.46,-129.47 0,-71.5 57.96,-129.46 129.46,-129.46zm-376.24 45.71l273.4 0m-242.88 76.27l216.74 0m-549.26 -756.18l566.79 -0.01 227.54 0c25.49,0 50.31,21.18 46.34,46.34l-48.66 308.22c-12.78,81 -67.11,149.11 -149.11,149.11l-192.87 0 -77 0m-326.72 -332.2l770.03 0m-734.29 155.23l712.17 0m-146.05 -326.7l0 503.58m-208.52 -503.58l0 503.67m-208.53 -503.66l0 466.24"/>
  <path class="fil4 str1" d="M1377.9 1005.83l0 222.59 -69.06 0 138.13 222.61 138.13 -222.61 -69.06 0 0 -222.59 -138.14 0zm0 111.29m-34.53 111.3m34.53 111.31m138.14 0m34.53 -111.31m-34.53 -111.3m-69.07 -111.29"/>
 </g>
</svg>