<svg xmlns="http://www.w3.org/2000/svg" xml:space="preserve" version="1.1" style="shape-rendering:geometricPrecision; text-rendering:geometricPrecision; image-rendering:optimizeQuality; fill-rule:evenodd; clip-rule:evenodd" xmlns:xlink="http://www.w3.org/1999/xlink" xmlns:xodm="http://www.corel.com/coreldraw/odm/2003" viewBox="576.22 890.92 1211.71 1245.01">
 <defs>
  <style type="text/css">
   <![CDATA[
    .str0 {stroke:#F79651;stroke-width:33.33;stroke-miterlimit:2.61313}
    .fil4 {fill:none}
    .fil2 {fill:#FCE7D8}
    .fil3 {fill:#FCE7D8}
    .fil1 {fill:#968383}
    .fil0 {fill:#8C7373}
   ]]>
  </style>
 </defs>
 <g id="Layer_x0020_1">
  <metadata id="CorelCorpID_0Corel-Layer"/>
  <path class="fil0" d="M1465.3 1869.37c-15.89,21.5 -25.29,48.09 -25.29,76.88 0,71.5 57.97,129.46 129.47,129.46 71.5,0 129.46,-57.96 129.46,-129.46 0,-2.52 -0.07,-5.01 -0.21,-7.49 -1.65,-29.01 -12.86,-55.46 -30.52,-76.27 -23.75,-27.96 -59.16,-45.71 -98.73,-45.71 -42.72,0 -80.6,20.69 -104.18,52.59zm104.18 22.26c30.16,0 54.62,24.45 54.62,54.62 0,30.16 -24.46,54.61 -54.62,54.61 -30.17,0 -54.62,-24.45 -54.62,-54.61 0,-30.17 24.45,-54.62 54.62,-54.62z"/>
  <path class="fil0" d="M985.69 1869.37c-15.89,21.5 -25.29,48.09 -25.29,76.88 0,71.5 57.97,129.46 129.47,129.46 71.5,0 129.46,-57.96 129.46,-129.46 0,-2.52 -0.07,-5.01 -0.21,-7.49 -1.65,-29.01 -12.86,-55.46 -30.52,-76.27 -23.75,-27.96 -59.17,-45.71 -98.73,-45.71 -42.72,0 -80.6,20.69 -104.18,52.59zm104.18 22.26c30.16,0 54.62,24.45 54.62,54.62 0,30.16 -24.46,54.61 -54.62,54.61 -30.17,0 -54.62,-24.45 -54.62,-54.61 0,-30.17 24.45,-54.62 54.62,-54.62z"/>
  <path class="fil1" d="M1089.87 1891.63c-30.17,0 -54.62,24.45 -54.62,54.62 0,30.16 24.45,54.61 54.62,54.61 30.16,0 54.62,-24.45 54.62,-54.61 0,-30.17 -24.46,-54.62 -54.62,-54.62z"/>
  <path class="fil1" d="M1569.48 1891.63c-30.17,0 -54.62,24.45 -54.62,54.62 0,30.16 24.45,54.61 54.62,54.61 30.16,0 54.62,-24.45 54.62,-54.61 0,-30.17 -24.46,-54.62 -54.62,-54.62z"/>
  <path class="fil2" d="M768.23 1031.89l149.69 616.99c0,0 -99.96,49.75 -98.63,142.85 0,0 -9.06,122.81 141.11,154.52 0,-28.79 9.4,-55.38 25.29,-76.88 -95.82,-8.26 -85.78,-79.64 -85.78,-79.64 1.16,-53.21 53.16,-64.42 53.16,-64.42l278.39 0c26.5,-8.07 28.7,-29.15 28.18,-39.06 -0.18,-3.25 -0.64,-5.3 -0.64,-5.3 0,-26 -29.07,-32.12 -29.07,-32.12l-112.21 0 -118.76 0c0,0 -67.36,-279.22 -112.36,-466.25 -17.78,-73.88 -32.07,-133.38 -37.34,-155.6 -18.62,-78.48 -82.47,-75.82 -82.47,-75.82l-97.1 0c0,0 -33.25,1.33 -33.25,41.23 0,39.91 36.71,39.5 36.71,39.5l95.08 0z"/>
  <rect class="fil3" x="1210.1" y="1862.49" width="240.52" height="67.23"/>
  <path class="fil4 str0" d="M960.4 1946.25c-150.17,-31.71 -141.11,-154.52 -141.11,-154.52 -1.33,-93.1 98.63,-142.85 98.63,-142.85l-149.69 -616.99 -95.08 0c0,0 -36.71,0.41 -36.71,-39.5 0,-39.9 33.25,-41.23 33.25,-41.23l97.1 0c0,0 63.85,-2.66 82.47,75.82 18.62,78.47 149.7,621.85 149.7,621.85l230.97 0c0,0 29.07,6.12 29.07,32.12 0,0 7.64,33.65 -27.54,44.36l-278.39 0c0,0 -52,11.21 -53.16,64.42 0,0 -10.04,71.38 85.78,79.64m104.18 22.26c30.16,0 54.62,24.45 54.62,54.62 0,30.16 -24.46,54.61 -54.62,54.61 -30.17,0 -54.62,-24.45 -54.62,-54.61 0,-30.17 24.45,-54.62 54.62,-54.62zm0 -74.85c71.5,0 129.46,57.96 129.46,129.47 0,71.5 -57.96,129.46 -129.46,129.46 -71.5,0 -129.47,-57.96 -129.47,-129.46 0,-71.51 57.97,-129.47 129.47,-129.47zm474.98 74.85c30.16,0 54.61,24.45 54.61,54.62 0,30.16 -24.45,54.61 -54.61,54.61 -30.17,0 -54.62,-24.45 -54.62,-54.61 0,-30.17 24.45,-54.62 54.62,-54.62zm0 -74.85c71.5,0 129.46,57.96 129.46,129.47 0,71.5 -57.96,129.46 -129.46,129.46 -71.51,0 -129.47,-57.96 -129.47,-129.46 0,-71.51 57.96,-129.47 129.47,-129.47zm-376.25 45.71l273.41 0m-242.89 76.27l216.75 0m-549.27 -756.18l566.8 0 227.53 0c25.49,0 50.32,21.17 46.34,46.34l-48.65 308.21c-12.79,81 -67.11,149.12 -149.12,149.12l-192.87 0 -76.99 0m-326.73 -332.21l770.04 0m-734.29 155.24l712.16 0m-146.04 -326.7l0 503.57m-208.53 -503.57l0 503.67m-208.53 -503.67l0 466.25"/>
 </g>
</svg>