<?xml version="1.0" standalone="no"?>
<!DOCTYPE svg PUBLIC "-//W3C//DTD SVG 20010904//EN"
 "http://www.w3.org/TR/2001/REC-SVG-20010904/DTD/svg10.dtd">
<svg version="1.0" xmlns="http://www.w3.org/2000/svg"
 width="662.000000pt" height="662.000000pt" viewBox="0 0 662.000000 662.000000"
 preserveAspectRatio="xMidYMid meet">
<metadata>
Created by potrace 1.14, written by Peter Selinger 2001-2017
</metadata>
<g transform="translate(0.000000,662.000000) scale(0.100000,-0.100000)"
fill="#000000" stroke="none">
<path d="M1513 5098 c-18 -5 -74 -34 -125 -66 -51 -32 -100 -61 -108 -65 -8
-4 -28 -15 -45 -26 -16 -10 -154 -91 -305 -181 -151 -90 -288 -171 -305 -181
-16 -10 -39 -23 -50 -29 -11 -5 -38 -21 -60 -34 -22 -14 -71 -43 -110 -66 -38
-22 -87 -50 -107 -63 -20 -12 -79 -46 -130 -76 -51 -30 -99 -61 -105 -69 -10
-12 -13 -209 -13 -909 l0 -893 38 -26 c31 -21 167 -99 412 -236 25 -14 146
-83 270 -153 124 -70 245 -139 270 -153 25 -14 88 -50 140 -80 52 -30 123 -70
157 -88 34 -19 86 -48 115 -65 77 -46 102 -51 156 -33 38 13 197 98 342 182
19 12 62 35 95 53 33 17 68 38 78 47 9 8 17 12 17 8 0 -4 13 2 29 13 15 11 39
25 52 31 13 6 33 16 44 23 11 7 52 30 90 51 261 147 661 369 698 388 20 11 40
25 44 30 7 13 5 385 -2 408 -3 8 -54 42 -112 76 -59 33 -108 65 -110 70 -2 5
49 38 112 74 66 37 115 71 116 79 1 9 0 99 0 200 -1 174 -7 211 -31 211 -13 0
-199 91 -205 100 -3 4 49 38 115 76 112 63 120 70 121 98 0 17 0 114 0 215 l1
185 -32 28 c-18 15 -37 28 -42 28 -5 0 -21 8 -36 19 -25 17 -291 172 -392 229
-25 14 -57 33 -72 43 -14 11 -28 19 -31 19 -2 0 -58 32 -123 71 -65 39 -136
80 -157 92 -22 12 -47 27 -56 32 -57 36 -194 115 -198 115 -3 0 -17 8 -31 19
-15 10 -47 30 -72 43 -25 14 -89 52 -143 83 -102 60 -140 70 -204 53z"/>
<path d="M4887 4544 c-1 -2 -14 -5 -29 -8 -104 -18 -168 -108 -172 -241 -4
-112 -12 -107 217 -107 176 1 195 -1 199 -16 13 -47 14 -47 -342 -47 l-335 0
-3 100 c-3 124 -13 139 -86 132 -26 -2 -52 -11 -57 -18 -5 -8 -9 -55 -8 -106
1 -50 -2 -96 -5 -101 -7 -12 -47 -7 -55 7 -4 5 -5 50 -4 100 2 86 1 92 -22
107 -30 19 -95 16 -112 -6 -7 -10 -11 -53 -11 -107 0 -51 -3 -96 -6 -102 -6
-9 -43 -7 -54 4 -3 3 -5 45 -5 95 0 117 -10 134 -79 128 -28 -3 -54 -12 -59
-19 -5 -8 -9 -90 -9 -182 0 -189 -7 -217 -62 -236 -46 -16 -95 -4 -121 31 -25
33 -23 27 -25 129 -2 94 -13 110 -76 113 -72 4 -80 -13 -73 -167 4 -94 9 -132
25 -167 45 -97 119 -141 235 -136 105 5 198 73 226 167 6 21 17 39 24 40 7 0
285 1 619 2 333 1 610 6 615 10 12 13 13 281 0 322 -18 59 -47 68 -232 71
-194 2 -178 0 -165 23 13 25 42 35 109 36 63 2 81 19 81 76 0 33 -19 67 -38
70 -23 3 -102 5 -105 3z"/>
<path d="M5325 4530 c-13 -14 -15 -55 -15 -253 0 -263 8 -308 59 -330 17 -7
146 -11 379 -12 386 -2 399 0 428 56 18 35 22 332 5 353 -6 7 -32 13 -59 15
-69 3 -76 -10 -77 -125 0 -51 -4 -96 -8 -100 -12 -12 -278 -11 -285 1 -3 5 -7
52 -7 103 -1 107 -10 122 -75 122 -65 0 -73 -14 -74 -129 0 -55 -2 -101 -5
-102 -4 -1 -32 -2 -64 -3 -44 -1 -61 2 -66 14 -4 8 -6 94 -5 190 2 207 -1 217
-70 217 -30 0 -51 -6 -61 -17z"/>
<path d="M6308 4543 c-9 -2 -19 -12 -23 -21 -3 -9 -6 -137 -6 -284 1 -309 0
-308 73 -308 75 0 75 -1 77 310 1 253 0 271 -18 289 -18 18 -61 24 -103 14z"/>
<path d="M5509 3841 c-60 -60 -20 -151 67 -151 32 0 84 51 84 82 0 45 -12 67
-45 82 -48 23 -73 20 -106 -13z"/>
<path d="M5789 3839 c-26 -10 -47 -42 -43 -66 1 -7 2 -20 3 -29 2 -29 60 -42
183 -41 110 0 119 2 139 23 26 28 28 79 4 103 -12 13 -41 16 -138 18 -67 1
-134 -2 -148 -8z"/>
<path d="M3435 3530 l-41 -5 2 -540 c1 -297 2 -543 3 -546 0 -3 146 -5 324 -4
382 2 431 11 506 84 103 101 115 306 24 404 -15 16 -54 42 -87 57 l-58 27 33
14 c46 18 97 66 122 114 29 55 29 162 0 226 -43 95 -133 157 -242 166 -82 6
-539 9 -586 3z m491 -242 c21 -10 40 -42 46 -78 4 -26 -32 -88 -55 -93 -37 -9
-207 -8 -208 0 -4 20 -5 169 -2 175 6 11 194 7 219 -4z m11 -425 c38 -17 58
-60 49 -106 -8 -45 -32 -65 -87 -75 -36 -6 -144 -8 -184 -3 -8 1 -13 149 -6
194 2 14 194 6 228 -10z"/>
<path d="M4920 3529 c-221 -25 -398 -166 -473 -376 -130 -360 146 -753 528
-753 39 0 77 1 85 3 8 2 33 7 55 12 79 16 185 76 255 144 119 117 170 233 174
396 2 80 -5 125 -33 209 -29 86 -115 202 -181 246 -12 8 -29 21 -36 28 -23 22
-136 69 -194 81 -73 15 -114 17 -180 10z m319 -420 c79 -137 142 -252 140
-253 -2 -2 -78 -46 -169 -98 -91 -53 -189 -109 -218 -127 -29 -17 -57 -31 -62
-31 -4 0 -10 -4 -12 -9 -1 -5 -14 -12 -28 -16 -22 -5 -28 0 -51 42 -14 26 -79
139 -144 251 -64 112 -115 205 -113 207 5 5 417 244 456 266 20 10 41 19 47
19 5 0 75 -113 154 -251z"/>
<path d="M5558 3532 c-21 -2 -38 -5 -38 -8 0 -3 24 -42 53 -87 29 -45 68 -107
87 -137 19 -30 38 -56 42 -58 5 -2 8 -8 8 -13 0 -6 18 -37 40 -69 22 -32 40
-63 40 -69 0 -5 4 -11 8 -13 4 -1 18 -20 31 -40 l22 -37 -26 -43 c-14 -24 -31
-52 -38 -63 -7 -11 -15 -22 -18 -25 -3 -3 -20 -30 -37 -60 -18 -30 -67 -109
-108 -175 -42 -66 -87 -138 -100 -161 l-24 -40 143 1 c78 1 147 2 154 3 10 2
42 52 131 207 13 22 38 62 54 88 34 53 32 53 67 -18 5 -11 45 -78 88 -150 l78
-130 188 -1 c151 -1 187 2 187 13 0 7 -24 50 -53 96 -29 45 -89 139 -133 209
-43 70 -91 147 -106 170 -15 24 -35 57 -44 75 l-17 31 59 94 c86 136 103 162
114 175 5 7 10 15 10 18 0 3 29 51 65 106 36 56 64 104 61 107 -5 4 -143 6
-262 3 -29 -1 -36 -9 -90 -98 -33 -54 -65 -109 -72 -123 -7 -14 -21 -36 -31
-49 l-18 -24 -84 147 -83 146 -101 1 c-55 0 -125 1 -155 2 -30 1 -72 1 -92 -1z"/>
</g>
</svg>
