<?xml version="1.0" standalone="no"?>
<!DOCTYPE svg PUBLIC "-//W3C//DTD SVG 20010904//EN"
 "http://www.w3.org/TR/2001/REC-SVG-20010904/DTD/svg10.dtd">
<svg version="1.0" xmlns="http://www.w3.org/2000/svg"
 width="1062.000000pt" height="1062.000000pt" viewBox="0 0 1062.000000 1062.000000"
 preserveAspectRatio="xMidYMid meet">
<metadata>
Created by potrace 1.14, written by Peter Selinger 2001-2017
</metadata>
<g transform="translate(0.000000,1062.000000) scale(0.100000,-0.100000)"
fill="#000000" stroke="none">
<path d="M5293 10597 c-13 -6 -23 -14 -23 -19 0 -5 -4 -7 -9 -3 -5 3 -17 -2
-25 -11 -9 -8 -16 -12 -16 -7 0 4 -4 3 -8 -2 -4 -6 -20 -17 -37 -25 -16 -8
-36 -21 -43 -28 -8 -7 -18 -10 -23 -7 -5 4 -9 2 -9 -3 0 -6 -24 -22 -52 -37
-29 -15 -55 -30 -58 -34 -3 -3 -27 -17 -55 -31 -51 -25 -63 -33 -92 -60 -9 -8
-18 -14 -20 -12 -8 6 -34 1 -29 -6 3 -5 -11 -14 -30 -21 -18 -7 -34 -17 -34
-22 0 -5 -6 -9 -13 -9 -7 0 -29 -11 -48 -25 -20 -13 -39 -21 -43 -18 -3 4 -6
1 -6 -5 0 -7 -7 -12 -15 -12 -8 0 -15 -4 -15 -10 0 -5 -7 -10 -15 -10 -8 0
-15 -5 -15 -11 0 -5 -4 -8 -9 -5 -5 3 -14 -1 -21 -9 -7 -8 -16 -12 -21 -9 -5
3 -9 0 -9 -5 0 -6 -7 -11 -15 -11 -7 0 -18 -7 -23 -16 -5 -9 -12 -15 -15 -15
-16 2 -95 -43 -91 -51 4 -5 0 -8 -7 -7 -21 3 -50 -12 -43 -22 3 -5 2 -9 -3 -8
-18 3 -31 -2 -53 -21 -13 -11 -29 -20 -37 -20 -8 0 -19 -5 -26 -10 -30 -26
-86 -58 -91 -53 -3 3 -8 -2 -12 -11 -3 -9 -10 -14 -14 -11 -4 2 -18 -4 -30
-15 -12 -11 -27 -17 -31 -14 -5 3 -9 1 -9 -3 0 -5 -20 -19 -45 -33 -25 -14
-45 -28 -45 -33 0 -4 -4 -6 -9 -2 -5 3 -17 -2 -25 -11 -9 -8 -16 -12 -16 -9 0
4 -15 -4 -34 -19 -19 -14 -42 -26 -51 -26 -8 0 -18 -7 -21 -15 -4 -8 -15 -15
-25 -15 -10 0 -19 -4 -19 -9 0 -5 -10 -13 -22 -17 -13 -4 -25 -10 -28 -15 -3
-4 -12 -9 -20 -11 -8 -2 -22 -10 -30 -18 -8 -8 -20 -16 -27 -17 -16 -4 -116
-64 -124 -76 -3 -5 -9 -8 -13 -8 -7 2 -69 -29 -76 -38 -8 -10 -70 -42 -70 -37
0 3 -9 -3 -20 -14 -12 -12 -25 -18 -30 -15 -6 4 -10 2 -10 -3 0 -5 -13 -15
-30 -22 -16 -7 -30 -16 -30 -21 0 -5 -6 -9 -13 -9 -7 0 -23 -9 -34 -19 -12
-11 -24 -17 -27 -14 -3 4 -14 -1 -23 -9 -10 -8 -38 -26 -63 -39 -25 -13 -51
-30 -58 -37 -8 -7 -18 -10 -23 -7 -5 4 -9 -1 -9 -10 0 -9 -4 -14 -9 -11 -5 3
-26 -6 -47 -20 -21 -14 -47 -30 -58 -35 -36 -16 -91 -51 -98 -63 -4 -6 -8 -8
-8 -3 0 4 -18 -4 -40 -18 -22 -14 -44 -25 -49 -25 -6 0 -15 -8 -20 -17 -6 -10
-11 -14 -11 -9 0 5 -7 3 -15 -4 -8 -7 -15 -9 -15 -4 0 4 -6 0 -12 -9 -7 -9
-20 -17 -28 -19 -8 -2 -22 -10 -30 -18 -8 -8 -22 -16 -30 -18 -8 -2 -17 -7
-20 -10 -3 -4 -22 -16 -43 -27 -20 -11 -37 -23 -37 -27 0 -5 -3 -7 -7 -6 -15
4 -53 -13 -53 -23 0 -6 -5 -7 -10 -4 -6 3 -13 -1 -16 -9 -3 -9 -10 -14 -14
-11 -4 3 -13 -2 -20 -10 -7 -8 -19 -15 -26 -15 -8 0 -22 -9 -31 -20 -10 -11
-25 -20 -35 -20 -9 0 -21 -6 -25 -14 -4 -8 -10 -14 -13 -14 -13 2 -50 -14 -50
-22 0 -4 -11 -11 -25 -14 -14 -4 -25 -11 -25 -17 0 -6 -4 -7 -10 -4 -5 3 -10
2 -10 -3 0 -9 -37 -25 -52 -23 -5 1 -8 -3 -8 -8 0 -6 -32 -26 -70 -47 -39 -20
-70 -41 -70 -47 0 -6 -3 -8 -6 -4 -3 3 -23 -4 -43 -17 -20 -12 -44 -25 -54
-29 -9 -3 -17 -11 -17 -17 0 -6 -4 -9 -9 -6 -4 3 -23 -6 -41 -19 -19 -14 -40
-25 -47 -25 -7 0 -13 -5 -13 -11 0 -6 -7 -8 -16 -5 -8 3 -12 2 -9 -4 3 -5 -6
-12 -20 -16 -14 -3 -25 -10 -25 -15 0 -5 -6 -9 -12 -10 -7 0 -33 -13 -58 -29
-25 -16 -69 -41 -97 -56 -29 -16 -53 -32 -53 -36 0 -4 -9 -8 -20 -8 -11 0 -20
-4 -20 -9 0 -10 -60 -37 -73 -33 -5 1 -6 -2 -2 -7 3 -6 -6 -13 -20 -17 -14 -3
-25 -10 -25 -14 0 -4 -18 -15 -40 -24 -22 -9 -40 -21 -40 -27 0 -5 -4 -8 -9
-4 -5 3 -12 1 -15 -4 -4 -5 -31 -22 -61 -37 -30 -16 -55 -32 -55 -36 0 -4 -7
-8 -15 -8 -8 0 -15 -5 -15 -11 0 -5 -4 -8 -10 -4 -5 3 -18 -3 -30 -15 -11 -11
-22 -20 -25 -20 -16 1 -65 -32 -60 -40 4 -6 1 -10 -5 -10 -7 0 -10 -7 -6 -15
3 -8 0 -15 -7 -15 -9 0 -8 -3 1 -9 19 -11 19 -15 3 -34 -9 -12 -10 -17 -2 -17
9 0 9 -5 1 -20 -6 -11 -7 -20 -2 -20 5 0 9 -7 9 -15 0 -8 -5 -15 -10 -15 -5 0
-5 -5 1 -13 7 -8 7 -18 2 -27 -5 -8 -6 -18 -3 -23 9 -15 10 -57 1 -57 -5 0 -4
-9 2 -20 6 -11 7 -20 3 -20 -10 0 -9 -52 1 -68 3 -6 2 -13 -4 -17 -6 -4 -7
-13 -1 -23 6 -11 6 -24 0 -34 -6 -10 -6 -19 0 -23 6 -3 7 -15 1 -29 -4 -12 -4
-29 0 -36 5 -8 5 -21 0 -30 -6 -11 -5 -21 2 -28 9 -9 9 -12 1 -12 -8 0 -9 -9
-3 -30 5 -18 5 -32 -1 -36 -6 -3 -6 -12 0 -22 5 -9 5 -26 1 -37 -5 -12 -4 -28
0 -35 5 -8 5 -21 1 -29 -9 -19 -8 -32 2 -48 5 -7 5 -13 0 -13 -4 0 -8 -13 -8
-30 0 -16 4 -30 9 -30 5 0 4 -6 -1 -12 -11 -15 -11 -78 0 -95 5 -7 4 -13 -1
-13 -5 0 -8 -15 -5 -32 4 -33 4 -54 -1 -113 -1 -16 2 -36 7 -42 5 -7 6 -13 1
-13 -5 0 -8 -44 -7 -97 2 -54 3 -102 3 -108 0 -5 -1 -35 -3 -65 -2 -30 1 -61
6 -67 6 -8 6 -13 0 -13 -11 0 -11 -50 0 -67 5 -7 4 -13 0 -13 -9 0 -8 -44 0
-103 2 -15 1 -29 -3 -32 -3 -2 -5 -28 -3 -57 2 -29 3 -57 4 -63 0 -5 -2 -22
-4 -38 -2 -15 -1 -29 3 -32 6 -3 6 -50 0 -50 -1 0 -3 -28 -4 -62 -1 -35 2 -63
7 -63 4 0 5 -6 0 -12 -10 -16 -10 -36 -2 -70 4 -14 4 -29 1 -33 -10 -10 -9
-125 1 -125 4 0 5 -6 1 -12 -10 -16 -13 -48 -4 -53 6 -4 5 -50 0 -50 -1 0 -3
-28 -4 -62 -1 -35 2 -63 7 -63 4 0 5 -5 1 -12 -11 -18 -12 -68 -1 -68 5 0 3
-8 -4 -17 -12 -14 -12 -16 0 -8 11 6 12 5 5 -6 -11 -18 -12 -129 0 -129 5 0 5
-5 0 -12 -8 -12 -10 -33 -4 -48 5 -14 6 -51 1 -55 -9 -5 -7 -128 2 -143 5 -6
5 -12 0 -12 -7 0 -10 -170 -3 -195 1 -5 1 -12 0 -15 -6 -17 -5 -52 2 -56 4 -3
6 -10 2 -15 -11 -19 -11 -59 0 -59 7 0 7 -3 1 -8 -12 -8 -13 -52 -2 -69 5 -7
5 -13 0 -13 -4 0 -8 -23 -8 -50 -1 -28 3 -50 8 -50 4 0 5 -5 1 -12 -11 -17
-12 -68 -2 -74 5 -3 5 -11 1 -17 -10 -16 -11 -88 -1 -109 4 -9 4 -19 0 -22
-10 -6 -9 -76 1 -92 3 -6 3 -14 0 -18 -11 -10 -11 -210 0 -223 5 -7 6 -13 1
-13 -5 0 -9 -41 -9 -90 -1 -50 3 -90 8 -90 6 0 5 -5 0 -12 -11 -15 -11 -147 0
-165 4 -6 3 -14 -2 -17 -10 -7 -9 -25 2 -42 3 -6 3 -14 -1 -18 -12 -13 -10
-236 2 -236 8 0 8 -3 0 -8 -14 -9 -15 -84 -1 -75 6 4 7 1 1 -8 -13 -21 -13
-159 0 -159 7 0 7 -3 -1 -8 -13 -8 -12 -45 1 -74 5 -10 12 -16 16 -13 5 3 15
-1 23 -9 8 -8 17 -12 21 -9 3 4 6 2 6 -3 0 -6 17 -18 38 -27 21 -9 48 -26 60
-37 14 -13 22 -16 22 -8 1 8 4 7 10 -3 5 -9 23 -22 40 -29 16 -7 30 -17 30
-22 0 -5 4 -7 9 -4 4 3 23 -6 41 -19 18 -13 36 -22 40 -20 5 3 11 -2 14 -11 3
-8 10 -12 16 -9 5 3 10 2 10 -3 0 -4 16 -14 35 -22 19 -8 35 -17 35 -22 0 -4
7 -8 15 -8 8 0 15 -5 15 -11 0 -5 4 -8 9 -4 5 3 16 -2 24 -10 9 -8 20 -15 25
-15 5 0 15 -7 22 -15 7 -8 16 -13 20 -10 5 3 10 1 12 -4 1 -5 10 -11 18 -13 8
-2 21 -9 28 -16 8 -7 18 -10 23 -7 5 4 9 -1 9 -9 0 -9 9 -16 20 -16 11 0 20
-5 20 -12 0 -6 3 -9 6 -5 4 3 13 -1 21 -9 8 -8 19 -12 24 -9 5 4 9 1 9 -4 0
-6 7 -11 15 -11 9 0 18 -7 21 -15 4 -8 9 -13 13 -11 3 2 24 -8 46 -23 22 -15
55 -34 73 -41 17 -8 32 -19 32 -23 0 -5 5 -5 10 -2 5 3 10 1 10 -6 0 -7 3 -10
6 -6 4 3 15 -4 26 -16 11 -12 17 -16 13 -10 -3 7 -1 13 4 13 6 0 11 -4 11 -8
0 -9 59 -45 79 -49 8 -1 17 -6 20 -12 4 -6 23 -17 44 -26 20 -8 37 -19 37 -24
0 -5 11 -12 25 -15 14 -4 25 -11 25 -16 0 -6 9 -10 20 -10 11 0 20 -4 20 -10
0 -5 6 -10 14 -10 8 0 21 -7 30 -15 8 -9 18 -16 20 -16 21 -2 46 -13 46 -19 0
-4 21 -18 47 -30 27 -12 50 -26 53 -30 3 -5 12 -10 20 -12 8 -2 20 -7 27 -13
30 -24 40 -30 53 -33 8 -2 17 -8 18 -13 2 -5 7 -7 12 -4 5 3 16 -3 26 -12 10
-10 20 -18 23 -18 12 -1 96 -48 102 -57 3 -5 15 -10 27 -11 11 0 20 -6 19 -11
-1 -6 4 -10 11 -11 7 0 17 -6 21 -14 5 -7 14 -10 20 -7 6 4 11 2 11 -3 0 -6 7
-11 15 -11 8 0 15 -5 15 -11 0 -5 4 -7 10 -4 5 3 10 2 10 -3 0 -5 18 -17 40
-27 22 -10 40 -22 40 -27 0 -5 4 -6 10 -3 5 3 10 1 10 -5 0 -7 5 -10 12 -8 11
4 30 -8 62 -38 6 -6 16 -9 23 -7 6 2 19 -4 30 -14 10 -11 40 -30 68 -43 27
-14 56 -32 63 -40 12 -13 13 -13 6 0 -4 8 3 5 15 -8 12 -12 26 -20 32 -17 5 4
9 1 9 -6 0 -7 3 -10 6 -6 3 3 15 -3 27 -14 11 -10 30 -19 41 -19 10 0 16 -3
13 -7 -4 -3 16 -17 43 -31 28 -13 50 -29 50 -34 0 -5 5 -6 10 -3 5 3 10 1 10
-4 0 -6 3 -10 8 -9 11 2 45 -14 60 -29 8 -7 18 -11 23 -8 5 4 9 2 9 -4 0 -5
16 -15 35 -22 19 -7 35 -16 35 -20 0 -4 28 -21 62 -39 34 -18 68 -39 76 -46 7
-8 18 -12 23 -9 5 4 9 1 9 -4 0 -6 7 -11 15 -11 8 0 15 -5 15 -10 0 -6 3 -9 8
-8 12 3 62 -25 62 -34 0 -5 4 -6 10 -3 5 3 10 1 10 -5 0 -6 5 -8 10 -5 6 3 10
2 10 -2 0 -5 25 -21 55 -37 30 -15 57 -32 61 -37 3 -5 10 -7 15 -4 5 4 9 1 9
-5 0 -6 4 -9 9 -5 6 3 13 -1 18 -8 4 -7 23 -19 40 -26 18 -7 30 -18 26 -24 -3
-5 -1 -7 5 -3 6 3 13 2 17 -4 4 -6 11 -8 16 -5 5 4 9 2 9 -4 0 -5 18 -17 40
-27 22 -10 40 -22 40 -27 0 -4 5 -5 10 -2 6 3 10 1 10 -5 0 -6 4 -8 10 -5 6 3
10 1 10 -5 0 -6 5 -8 10 -5 6 3 10 1 10 -4 0 -6 7 -11 15 -11 8 0 15 -5 15
-11 0 -5 5 -7 10 -4 6 3 13 -1 16 -9 3 -9 10 -13 15 -10 5 3 9 0 9 -6 0 -6 4
-9 9 -6 4 3 16 -3 26 -14 10 -11 21 -17 25 -15 4 3 18 -4 30 -15 13 -11 29
-20 37 -20 7 0 16 -7 20 -16 5 -13 7 -13 14 -2 7 10 9 10 9 0 0 -7 16 -20 35
-28 19 -8 35 -19 35 -25 0 -5 4 -8 9 -4 5 3 16 -1 24 -9 8 -8 17 -12 21 -9 3
4 6 1 6 -5 0 -7 9 -12 19 -12 10 0 22 -7 25 -16 3 -8 10 -12 16 -9 5 3 10 2
10 -2 0 -10 111 -69 123 -65 4 1 7 -2 7 -8 0 -11 80 -54 80 -43 0 5 5 0 11
-10 6 -9 14 -15 20 -12 5 4 9 2 9 -2 0 -5 22 -20 50 -34 27 -13 50 -29 50 -36
0 -7 7 -10 15 -7 8 4 15 1 15 -6 0 -6 4 -9 9 -5 5 3 16 -2 24 -10 9 -8 20 -15
26 -15 6 0 11 -5 11 -11 0 -5 4 -7 10 -4 6 3 10 1 10 -6 0 -7 3 -9 6 -6 4 3
18 -2 32 -13 13 -11 28 -18 32 -15 4 3 10 -2 14 -10 3 -8 12 -15 21 -15 8 0
15 -5 15 -11 0 -5 4 -7 10 -4 6 3 10 1 10 -5 0 -6 5 -8 10 -5 6 3 10 0 10 -7
0 -10 2 -10 9 0 4 8 10 13 12 13 13 -2 49 13 49 20 0 5 7 9 15 9 8 0 15 5 15
11 0 5 4 8 9 5 4 -3 19 3 31 14 12 11 27 17 31 14 5 -3 9 -1 9 5 0 5 20 19 45
31 25 12 52 29 60 37 8 8 24 15 35 16 11 1 20 5 20 9 0 5 25 20 54 35 30 15
52 31 49 36 -4 6 -1 7 7 2 8 -5 18 -1 27 10 7 11 13 16 13 12 0 -4 13 1 29 11
86 51 124 72 132 72 5 0 9 5 9 12 0 6 3 9 6 5 4 -3 21 5 39 18 17 14 35 22 38
18 4 -3 7 -1 7 6 0 7 5 9 10 6 6 -3 10 -2 10 4 0 6 11 13 24 17 14 3 32 14 42
25 9 10 25 19 36 19 10 0 18 3 18 8 0 4 10 12 23 18 45 22 91 49 105 62 7 7
18 10 23 7 5 -4 9 -1 9 5 0 6 5 8 10 5 6 -3 13 1 16 9 3 9 10 13 15 10 5 -3 9
0 9 5 0 6 6 11 14 11 8 0 16 3 18 8 2 4 21 16 43 27 22 11 46 26 53 32 7 7 20
13 28 13 8 0 14 5 14 10 0 6 9 10 20 10 11 0 20 5 20 10 0 6 6 10 14 10 8 0
21 6 28 13 14 14 51 30 56 25 2 -2 8 5 13 15 6 9 14 15 20 12 5 -4 9 -2 9 2 0
5 17 17 38 28 20 11 40 24 44 30 4 5 8 6 8 2 0 -4 17 4 37 18 21 14 43 25 50
25 7 0 13 4 13 9 0 5 20 17 44 27 24 10 42 22 40 26 -3 5 4 8 15 8 12 0 21 5
21 10 0 6 6 10 14 10 7 0 19 7 26 15 7 9 19 14 27 11 7 -3 13 -2 13 3 0 4 17
16 37 27 21 10 46 27 57 36 10 10 22 15 26 13 4 -2 16 5 28 15 12 11 26 20 33
20 12 0 72 40 77 52 2 4 10 4 18 1 7 -3 17 2 20 11 3 9 10 13 15 10 5 -3 9 0
9 6 0 6 4 9 9 6 5 -3 14 1 21 9 7 8 19 15 26 15 8 0 14 5 14 11 0 5 5 7 10 4
6 -3 10 -3 10 2 0 4 18 17 40 27 22 11 40 23 40 28 0 5 4 7 9 3 5 -3 16 1 24
9 8 8 17 12 21 9 3 -4 6 -1 6 6 0 7 5 9 10 6 6 -3 10 -2 10 4 0 5 16 15 35 22
19 7 35 17 35 21 0 5 18 15 40 24 22 9 37 20 34 25 -3 5 2 6 10 3 9 -3 16 -2
16 4 0 5 11 13 25 16 14 4 25 11 25 16 0 6 9 10 20 10 11 0 20 4 20 10 0 5 11
12 25 16 14 3 25 10 25 15 0 5 7 9 16 9 8 0 12 4 9 10 -3 6 1 7 9 4 9 -3 16
-1 16 5 0 6 6 11 14 11 8 0 22 7 30 16 9 8 16 13 16 9 0 -3 17 6 37 20 21 14
43 25 50 25 7 0 13 5 13 10 0 6 7 10 15 10 8 0 15 5 15 12 0 6 3 8 6 5 4 -3
18 2 32 13 13 11 28 17 33 14 5 -3 9 -1 9 5 0 6 17 18 38 28 20 9 40 22 44 27
4 6 8 7 8 3 0 -5 7 -1 16 7 8 9 19 14 24 11 4 -3 11 2 14 11 3 8 10 13 15 9 6
-3 13 0 18 7 7 12 35 28 128 76 17 8 33 20 37 26 5 7 8 7 8 1 0 -5 7 -1 15 9
8 11 15 16 15 12 0 -5 7 -3 15 4 8 7 15 10 15 6 0 -3 9 3 20 14 12 12 26 18
32 14 6 -4 8 -3 5 3 -6 10 27 27 46 24 4 -1 7 3 7 9 0 5 5 10 11 10 6 0 17 7
26 15 8 8 19 13 24 10 5 -4 9 -1 9 6 0 7 3 10 6 6 3 -3 13 1 22 9 10 8 21 14
26 13 5 0 12 4 15 9 3 6 13 12 21 14 8 2 19 8 25 15 5 7 17 13 25 15 8 2 23
11 34 20 10 10 23 15 28 12 4 -3 8 0 8 5 0 6 7 11 15 11 9 0 18 7 21 15 4 8
14 15 24 15 10 0 23 7 30 15 7 8 18 15 25 15 7 0 23 9 37 19 14 11 31 21 39
23 7 2 22 11 33 20 10 10 23 15 28 12 4 -3 8 -1 8 4 0 5 26 22 58 38 31 16 59
32 62 35 9 10 55 33 63 31 4 -1 7 2 7 7 0 5 14 14 30 21 17 7 30 17 30 22 0 5
4 7 9 3 5 -3 15 1 23 8 13 13 45 28 51 24 2 -1 11 5 20 13 26 24 42 35 53 37
25 5 115 71 104 78 -8 5 -8 10 0 20 8 10 8 15 0 20 -8 5 -8 10 0 20 8 9 8 15
0 20 -7 4 -7 12 0 24 5 10 7 21 4 23 -10 11 -12 48 -3 48 6 0 7 5 3 12 -4 7
-9 143 -11 303 -2 250 -10 639 -12 655 -1 3 -9 6 -18 7 -17 1 -47 7 -103 19
-14 3 -32 7 -40 9 -8 2 -15 4 -15 5 0 1 -8 3 -19 5 -10 2 -39 8 -65 14 -25 6
-59 13 -76 15 -16 2 -32 5 -35 7 -3 1 -9 3 -15 4 -5 1 -23 4 -40 8 -16 4 -39
9 -50 12 -11 2 -51 11 -90 20 -38 9 -81 18 -95 20 -14 3 -36 8 -50 11 -14 3
-37 6 -52 7 -16 1 -28 6 -28 11 0 4 -7 6 -15 3 -8 -4 -16 -3 -19 1 -3 4 -21 9
-42 10 -20 2 -42 6 -48 9 -5 4 -21 8 -34 9 -13 2 -31 9 -40 16 -12 10 -14 10
-8 1 9 -16 7 -16 -40 1 -22 7 -47 12 -57 10 -9 -1 -15 2 -11 7 3 5 -1 9 -8 9
-12 0 -7 4 59 41 64 36 104 59 141 83 22 14 42 22 46 19 3 -3 8 2 12 11 3 9 9
14 14 11 4 -2 16 4 27 15 12 10 24 16 27 13 3 -4 6 0 6 7 0 7 3 11 6 7 4 -3
25 6 48 22 22 16 51 31 64 35 12 4 22 11 22 15 0 4 16 13 35 21 19 8 35 17 35
21 0 4 11 10 25 13 14 4 23 11 20 16 -3 6 1 7 9 4 9 -3 16 -2 16 3 0 5 16 15
35 23 19 7 37 20 40 27 2 8 9 11 15 8 5 -3 10 -1 10 5 0 6 4 9 8 6 5 -3 18 4
30 14 12 11 26 20 31 20 9 0 111 59 121 71 7 7 33 17 43 15 5 0 13 7 18 17 6
9 14 15 20 12 5 -4 9 -1 9 5 0 6 5 8 10 5 6 -3 10 -3 10 2 0 4 21 19 48 33 26
13 51 31 56 40 9 14 17 1120 8 1147 -2 6 -10 9 -17 7 -7 -3 -16 -1 -19 4 -3 5
-17 8 -31 7 -14 -2 -25 0 -25 4 0 4 -16 8 -37 9 -20 2 -41 6 -47 10 -6 4 -20
8 -31 9 -25 2 -47 7 -60 14 -5 3 -20 4 -32 3 -13 0 -23 2 -23 6 0 4 -10 8 -22
8 -28 1 -50 6 -63 13 -5 3 -20 4 -32 3 -13 0 -23 2 -23 5 0 4 -16 8 -37 9 -20
2 -41 6 -46 9 -9 5 -46 12 -89 16 -10 1 -18 5 -18 9 0 4 -6 5 -14 2 -8 -3 -17
-1 -20 5 -4 6 -13 8 -21 4 -8 -3 -15 -1 -15 3 0 5 -18 10 -40 11 -22 2 -50 8
-61 14 -17 9 -20 8 -13 -3 7 -11 5 -11 -9 0 -9 8 -21 11 -27 7 -5 -3 -10 -2
-10 3 0 6 -9 8 -20 5 -11 -3 -20 -1 -20 4 0 5 -12 10 -27 11 -26 1 -68 8 -68
12 0 2 -37 10 -62 12 -13 1 -23 6 -23 10 0 4 -7 8 -15 8 -13 0 -14 2 -3 14 7
8 16 12 19 10 4 -2 18 5 32 16 14 11 27 20 30 20 5 0 75 39 182 102 28 16 65
36 83 44 17 8 32 19 32 25 0 5 4 8 9 4 5 -3 15 1 23 8 15 15 49 31 61 29 4 -1
7 3 7 8 0 6 7 10 15 10 8 0 15 5 15 10 0 6 5 10 10 10 6 0 28 11 49 24 21 14
42 22 45 19 3 -4 6 -2 6 4 0 5 26 23 57 39 32 16 63 34 70 40 6 6 25 17 42 24
17 7 31 16 31 21 0 5 3 9 8 8 15 -2 52 14 52 22 0 5 6 9 14 9 7 0 19 7 26 15
7 8 16 12 21 9 5 -3 9 0 9 5 0 6 7 11 15 11 8 0 15 5 15 11 0 5 4 8 9 5 5 -3
14 1 21 9 7 8 19 15 26 15 8 0 14 5 14 11 0 5 3 8 8 5 4 -2 16 2 26 10 16 11
19 28 20 106 1 51 5 99 10 107 6 10 5 12 -2 7 -13 -8 -12 20 1 42 5 6 4 12 0
12 -5 0 -9 9 -10 20 -1 11 3 20 8 20 6 0 6 6 0 18 -5 10 -6 24 -1 31 4 8 4 27
0 42 -5 16 -6 29 -2 29 4 0 7 165 7 368 l1 367 -26 22 c-14 13 -29 23 -33 23
-5 0 -20 9 -34 20 -14 11 -29 17 -34 14 -5 -3 -12 2 -15 10 -3 9 -12 16 -19
16 -7 0 -29 11 -49 25 -20 13 -36 21 -36 17 0 -4 -4 -2 -8 3 -7 10 -36 28 -84
52 -15 8 -30 19 -33 24 -4 5 -11 7 -16 4 -5 -4 -9 -1 -9 4 0 6 -7 11 -15 11
-8 0 -15 3 -15 8 0 4 -15 13 -32 21 -18 8 -41 21 -50 29 -10 8 -18 12 -18 8 0
-4 -7 -1 -15 6 -25 23 -40 34 -45 35 -23 2 -49 16 -44 24 3 5 2 8 -3 7 -10 -3
-55 21 -150 78 -40 24 -77 44 -83 44 -5 0 -10 5 -10 10 0 6 -5 10 -10 10 -6 0
-29 12 -53 27 -23 15 -45 27 -49 28 -4 0 -16 8 -27 17 -11 9 -22 14 -25 11 -3
-4 -6 -2 -6 4 0 6 -10 13 -23 17 -13 3 -34 15 -47 26 -13 11 -29 20 -37 20 -7
0 -13 5 -13 10 0 6 -6 10 -14 10 -8 0 -21 6 -28 13 -7 7 -28 20 -45 28 -18 7
-33 17 -33 21 0 5 -6 8 -14 8 -7 0 -19 7 -26 15 -7 8 -16 12 -21 9 -5 -3 -9 0
-9 5 0 6 -7 11 -15 11 -8 0 -15 4 -15 9 0 5 -16 15 -35 21 -22 7 -33 16 -28
23 3 7 3 9 -1 5 -5 -4 -26 4 -47 18 -21 13 -43 24 -49 24 -5 0 -10 5 -10 11 0
5 -4 7 -10 4 -5 -3 -10 -2 -10 3 0 5 -18 17 -40 27 -22 10 -40 22 -40 27 0 5
-4 6 -10 3 -5 -3 -10 -1 -10 4 0 6 -6 11 -13 11 -7 0 -22 8 -33 18 -11 9 -26
18 -34 20 -8 2 -17 8 -18 13 -2 5 -8 7 -13 3 -5 -3 -9 -1 -9 3 0 5 -22 20 -50
34 -27 13 -50 27 -50 32 0 4 -7 7 -15 7 -8 0 -15 5 -15 12 0 6 -3 9 -6 6 -3
-3 -29 9 -57 28 -28 19 -57 34 -64 34 -7 0 -13 4 -13 9 0 5 -10 13 -22 17 -13
4 -25 10 -28 14 -3 4 -32 22 -65 40 -33 18 -67 39 -76 46 -8 8 -20 14 -26 14
-5 0 -20 9 -33 20 -12 11 -26 17 -30 15 -5 -3 -10 -2 -12 2 -4 10 -88 65 -88
58 0 -3 -6 -1 -12 5 -26 21 -89 60 -99 60 -5 0 -12 7 -15 15 -4 8 -9 13 -13
10 -4 -2 -19 3 -32 13 -13 9 -30 17 -38 19 -8 1 -17 5 -20 10 -9 12 -61 45
-61 38 0 -3 -10 3 -22 15 -12 11 -25 20 -29 20 -4 0 -44 23 -88 50 -44 28 -85
50 -91 50 -5 0 -10 3 -10 8 0 4 -10 12 -23 17 -38 18 -112 60 -117 66 -5 7
-61 39 -125 73 -22 12 -42 23 -45 26 -14 16 -98 58 -104 53 -3 -3 -6 -1 -6 5
0 6 -31 28 -70 48 -38 21 -70 41 -70 45 0 4 -13 10 -30 14 -16 4 -30 11 -30
16 0 5 -7 9 -15 9 -8 0 -15 4 -15 8 0 5 -16 14 -35 22 -19 8 -35 18 -35 22 0
5 -4 6 -10 3 -5 -3 -10 -2 -10 3 0 5 -14 15 -31 22 -17 7 -36 18 -43 24 -14
14 -78 46 -91 47 -5 0 -14 7 -18 15 -4 8 -15 14 -22 14 -8 0 -15 4 -15 8 0 5
-16 14 -35 22 -19 8 -35 16 -35 19 0 7 -56 33 -66 31 -3 -1 -12 7 -20 17 -7
10 -14 14 -14 10 0 -4 -6 -3 -12 3 -21 19 -82 54 -98 56 -8 2 -20 10 -26 18
-6 9 -16 16 -21 16 -6 0 -39 17 -73 38 -35 20 -67 36 -72 35 -4 -2 -8 2 -8 8
0 5 -4 7 -10 4 -5 -3 -10 -2 -10 3 0 5 -12 15 -27 22 -16 8 -39 21 -53 30 -48
31 -74 38 -97 27z"/>
</g>
</svg>
