<svg xmlns="http://www.w3.org/2000/svg" xml:space="preserve" version="1.1" style="shape-rendering:geometricPrecision; text-rendering:geometricPrecision; image-rendering:optimizeQuality; fill-rule:evenodd; clip-rule:evenodd" xmlns:xlink="http://www.w3.org/1999/xlink" xmlns:xodm="http://www.corel.com/coreldraw/odm/2003" viewBox="1086.74 1267.18 304.5 280.79">
 <defs>
  <style type="text/css">
   <![CDATA[
    .str3 {stroke:#FEFEFE;stroke-width:3.13;stroke-miterlimit:2.61313}
    .str0 {stroke:#F69046;stroke-width:6.25;stroke-miterlimit:2.61313}
    .str2 {stroke:#FEFEFE;stroke-width:4.17;stroke-miterlimit:2.61313}
    .str1 {stroke:#FEFEFE;stroke-width:4.17;stroke-miterlimit:2.61313}
    .fil2 {fill:none}
    .fil1 {fill:#FEFEFE}
    .fil0 {fill:#F69046}
    .fil3 {fill:#FEFEFE;fill-rule:nonzero}
   ]]>
  </style>
 </defs>
 <g id="Layer_x0020_1">
  <metadata id="CorelCorpID_0Corel-Layer"/>
  <path class="fil0" d="M1368.91 1408.17l-192.43 -0.76 0 122.61c0,5.72 4.17,10.4 9.27,10.4l173.89 0c5.1,0 9.27,-4.68 9.27,-10.4l0 -121.85z"/>
  <rect class="fil1" x="1203.54" y="1445.81" width="23.48" height="94.62"/>
  <rect class="fil0 str0" x="1170.45" y="1273.45" width="199.22" height="45.45" rx="2.93" ry="2.93"/>
  <path class="fil0" d="M1383.55 1399.53l-45.44 0 -11.08 -63.49 21.06 0c4.91,0 9.81,0 14.72,0 4.97,0.29 6.58,2.76 7.61,5.56l13.13 57.93z"/>
  <path class="fil0" d="M1159.27 1399.59l45.45 0 11.07 -63.49 -21.06 0c-4.9,0 -9.81,0 -14.71,0 -4.97,0.3 -6.58,2.77 -7.61,5.56l-13.14 57.93z"/>
  <polygon class="fil0" points="1266.88,1399.62 1213.93,1399.62 1225.37,1335.53 1267.47,1335.53 "/>
  <polygon class="fil0" points="1329.15,1399.97 1276.2,1399.97 1276.02,1335.88 1318.12,1335.88 "/>
  <path class="fil0 str1" d="M1383.69 1406.9l-45.54 0 0 0c0,22.88 45.54,22.88 45.54,0l0 0z"/>
  <path class="fil0 str1" d="M1329.15 1406.9l-52.95 0c0,22.88 52.95,22.88 52.95,0z"/>
  <path class="fil0 str1" d="M1266.88 1406.55l-52.95 0c0,22.88 52.95,22.88 52.95,0z"/>
  <path class="fil0 str1" d="M1204.81 1406.52l-45.54 0 0 0c0,22.88 45.54,22.88 45.54,0l0 0z"/>
  <path class="fil2 str2" d="M1203.54 1540.42l69.13 0 0 -92.09c0,-1.39 -1.14,-2.52 -2.53,-2.52l-64.07 0c-1.39,0 -2.53,1.13 -2.53,2.52l0 92.09z"/>
  <path class="fil2 str3" d="M1237.94 1499.17l1.39 -0.07c0.98,-0.06 1.78,-0.8 1.78,-1.78l0 -8.41c0,-0.98 -0.81,-1.83 -1.78,-1.77l-1.39 0.07c-0.97,0.05 -1.77,0.8 -1.77,1.78l0 8.4c0,0.98 0.8,1.83 1.77,1.78z"/>
  <path class="fil3" d="M1189.96 1309.78l0 -28.99 21.46 0 0 4.9 -15.59 0 0 6.43 14.5 0 0 4.91 -14.5 0 0 7.85 16.16 0 0 4.9 -22.03 0zm32.72 0l0 -28.99 21.47 0 0 4.9 -15.6 0 0 6.43 14.5 0 0 4.91 -14.5 0 0 7.85 16.16 0 0 4.9 -22.03 0zm32.72 -28.99l11.6 0c2.3,0 4.01,0.09 5.13,0.28 1.14,0.2 2.14,0.59 3.04,1.19 0.89,0.61 1.63,1.42 2.22,2.42 0.6,1.01 0.89,2.14 0.89,3.39 0,1.35 -0.36,2.6 -1.09,3.72 -0.73,1.14 -1.72,1.98 -2.97,2.55 1.76,0.52 3.11,1.4 4.06,2.64 0.95,1.24 1.42,2.7 1.42,4.38 0,1.32 -0.3,2.6 -0.92,3.85 -0.61,1.25 -1.45,2.25 -2.52,3 -1.05,0.74 -2.36,1.2 -3.92,1.38 -0.97,0.1 -3.33,0.16 -7.06,0.19l-9.88 0 0 -28.99zm5.88 4.82l0 6.68 3.83 0c2.27,0 3.69,-0.04 4.24,-0.1 1,-0.12 1.79,-0.46 2.37,-1.04 0.57,-0.57 0.85,-1.32 0.85,-2.25 0,-0.9 -0.25,-1.62 -0.74,-2.18 -0.49,-0.56 -1.23,-0.9 -2.2,-1.01 -0.58,-0.07 -2.25,-0.1 -4.99,-0.1l-3.36 0zm0 11.5l0 7.77 5.42 0c2.11,0 3.45,-0.06 4.02,-0.17 0.87,-0.17 1.58,-0.55 2.12,-1.17 0.55,-0.62 0.83,-1.43 0.83,-2.46 0,-0.88 -0.21,-1.62 -0.64,-2.23 -0.42,-0.6 -1.03,-1.05 -1.83,-1.33 -0.79,-0.27 -2.53,-0.41 -5.19,-0.41l-4.73 0zm27.87 -1.65c0,-2.96 0.44,-5.44 1.33,-7.45 0.65,-1.48 1.56,-2.81 2.7,-3.98 1.14,-1.18 2.39,-2.05 3.74,-2.62 1.81,-0.76 3.9,-1.15 6.26,-1.15 4.28,0 7.7,1.33 10.26,3.98 2.57,2.66 3.85,6.35 3.85,11.08 0,4.69 -1.28,8.37 -3.82,11.01 -2.54,2.65 -5.95,3.98 -10.21,3.98 -4.31,0 -7.75,-1.32 -10.29,-3.96 -2.54,-2.63 -3.82,-6.26 -3.82,-10.89zm6.03 -0.2c0,3.29 0.76,5.78 2.28,7.48 1.52,1.7 3.45,2.55 5.78,2.55 2.35,0 4.27,-0.85 5.77,-2.53 1.5,-1.68 2.25,-4.21 2.25,-7.58 0,-3.32 -0.74,-5.81 -2.2,-7.44 -1.46,-1.64 -3.39,-2.46 -5.82,-2.46 -2.41,0 -4.36,0.83 -5.84,2.49 -1.48,1.65 -2.22,4.15 -2.22,7.49zm29.46 14.52l10 -15.12 -9.07 -13.87 6.83 0 5.71 8.63 5.71 -8.63 6.85 0 -9.09 13.88 9.98 15.11 -7.03 0 -6.42 -9.82 -6.43 9.82 -7.04 0z"/>
  <polygon class="fil2 str3" points="1131.74,1532.33 1092.55,1525.74 1092.4,1451.29 1131.74,1443.56 "/>
  <polygon class="fil1" points="1222.67,1445.81 1271.34,1445.89 1271.34,1449.38 1222.67,1454.17 "/>
  <polygon class="fil1" points="1224.37,1541.56 1270.49,1541.46 1270.49,1537.26 1224.37,1531.48 "/>
 </g>
</svg>