<svg xmlns="http://www.w3.org/2000/svg" xml:space="preserve" version="1.1" style="shape-rendering:geometricPrecision; text-rendering:geometricPrecision; image-rendering:optimizeQuality; fill-rule:evenodd; clip-rule:evenodd" xmlns:xlink="http://www.w3.org/1999/xlink" xmlns:xodm="http://www.corel.com/coreldraw/odm/2003" viewBox="1147.96 879.66 246.98 278.57">
 <defs>
  <style type="text/css">
   <![CDATA[
    .str0 {stroke:#F69046;stroke-width:6.25;stroke-miterlimit:2.61313}
    .str1 {stroke:#F69046;stroke-width:4.17;stroke-miterlimit:2.61313}
    .fil0 {fill:none}
    .fil1 {fill:#F69046;fill-rule:nonzero}
   ]]>
  </style>
 </defs>
 <g id="Layer_x0020_1">
  <metadata id="CorelCorpID_0Corel-Layer"/>
  <rect class="fil0 str0" x="1170.45" y="885.94" width="199.22" height="45.45" rx="2.93" ry="2.93"/>
  <path class="fil0 str0" d="M1383.55 1012.02l-45.44 0 -11.08 -63.49 21.06 0c4.91,0 9.81,0 14.72,0 4.97,0.29 6.58,2.76 7.61,5.56l13.13 57.93z"/>
  <path class="fil0 str0" d="M1159.27 1012.09l45.45 0 11.07 -63.49 -21.06 0c-4.9,0 -9.81,0 -14.71,0 -4.97,0.29 -6.58,2.76 -7.61,5.56l-13.14 57.93z"/>
  <polygon class="fil0 str0" points="1266.88,1012.11 1213.93,1012.11 1225.37,948.03 1267.47,948.03 "/>
  <polygon class="fil0 str0" points="1329.15,1012.47 1276.2,1012.47 1276.02,948.38 1318.12,948.38 "/>
  <path class="fil0 str0" d="M1383.65 1013.79l-45.54 0 0 0c0,22.88 45.54,22.88 45.54,0l0 0z"/>
  <path class="fil0 str0" d="M1329.15 1013.4l-52.95 0c0,22.87 52.95,22.87 52.95,0z"/>
  <path class="fil0 str0" d="M1266.88 1013.04l-52.95 0c0,22.88 52.95,22.88 52.95,0z"/>
  <path class="fil0 str0" d="M1204.81 1013.02l-45.54 0 0 0c0,22.87 45.54,22.87 45.54,0l0 0z"/>
  <path class="fil0 str0" d="M1175.9 1028.49l0 109.16c0,5.1 4.17,9.27 9.27,9.27l173.89 0c5.1,0 9.27,-4.17 9.27,-9.27l0 -108.49"/>
  <path class="fil0 str0" d="M1203.54 1146.92l69.13 0 0 -92.09c0,-1.39 -1.14,-2.53 -2.53,-2.53l-64.07 0c-1.39,0 -2.53,1.14 -2.53,2.53l0 92.09z"/>
  <rect class="fil0 str1" x="1216.68" y="1091.72" width="7.62" height="17.01" rx="2.53" ry="2.53"/>
  <path class="fil1" d="M1189.96 922.28l0 -29 21.46 0 0 4.9 -15.59 0 0 6.44 14.5 0 0 4.9 -14.5 0 0 7.86 16.16 0 0 4.9 -22.03 0zm32.72 0l0 -29 21.47 0 0 4.9 -15.6 0 0 6.44 14.5 0 0 4.9 -14.5 0 0 7.86 16.16 0 0 4.9 -22.03 0zm32.72 -29l11.6 0c2.3,0 4.01,0.1 5.13,0.28 1.14,0.2 2.14,0.6 3.04,1.2 0.89,0.61 1.63,1.41 2.22,2.42 0.6,1 0.89,2.13 0.89,3.38 0,1.35 -0.36,2.6 -1.09,3.73 -0.73,1.13 -1.72,1.98 -2.97,2.54 1.76,0.52 3.11,1.4 4.06,2.64 0.95,1.24 1.42,2.7 1.42,4.38 0,1.33 -0.3,2.61 -0.92,3.86 -0.61,1.24 -1.45,2.24 -2.52,2.99 -1.05,0.75 -2.36,1.2 -3.92,1.38 -0.97,0.1 -3.33,0.17 -7.06,0.2l-9.88 0 0 -29zm5.88 4.82l0 6.68 3.83 0c2.27,0 3.69,-0.03 4.24,-0.1 1,-0.11 1.79,-0.46 2.37,-1.03 0.57,-0.58 0.85,-1.33 0.85,-2.26 0,-0.89 -0.25,-1.62 -0.74,-2.18 -0.49,-0.56 -1.23,-0.89 -2.2,-1.01 -0.58,-0.07 -2.25,-0.1 -4.99,-0.1l-3.36 0zm0 11.5l0 7.78 5.42 0c2.11,0 3.45,-0.07 4.02,-0.18 0.87,-0.16 1.58,-0.55 2.12,-1.16 0.55,-0.62 0.83,-1.44 0.83,-2.47 0,-0.88 -0.21,-1.61 -0.64,-2.22 -0.42,-0.61 -1.03,-1.05 -1.83,-1.33 -0.79,-0.28 -2.53,-0.42 -5.19,-0.42l-4.73 0zm27.87 -1.65c0,-2.95 0.44,-5.44 1.33,-7.45 0.65,-1.48 1.56,-2.81 2.7,-3.98 1.14,-1.17 2.39,-2.05 3.74,-2.62 1.81,-0.76 3.9,-1.14 6.26,-1.14 4.28,0 7.7,1.32 10.26,3.98 2.57,2.65 3.85,6.35 3.85,11.08 0,4.69 -1.28,8.36 -3.82,11.01 -2.54,2.65 -5.95,3.97 -10.21,3.97 -4.31,0 -7.75,-1.32 -10.29,-3.95 -2.54,-2.64 -3.82,-6.27 -3.82,-10.9zm6.03 -0.19c0,3.28 0.76,5.78 2.28,7.48 1.52,1.69 3.45,2.54 5.78,2.54 2.35,0 4.27,-0.84 5.77,-2.52 1.5,-1.69 2.25,-4.22 2.25,-7.58 0,-3.33 -0.74,-5.81 -2.2,-7.45 -1.46,-1.63 -3.39,-2.45 -5.82,-2.45 -2.41,0 -4.36,0.83 -5.84,2.48 -1.48,1.66 -2.22,4.16 -2.22,7.5zm29.46 14.52l10 -15.12 -9.07 -13.88 6.83 0 5.71 8.63 5.71 -8.63 6.85 0 -9.09 13.88 9.98 15.12 -7.03 0 -6.42 -9.82 -6.43 9.82 -7.04 0z"/>
 </g>
</svg>